PathFileType	4	(X/Y/Z)	c:/Users/goper/Files/vsCode/490R/osim_files/A03/A03_Static03.trc
DataRate	CameraRate	NumFrames	NumMarkers	Units                	OrigDataRate	OrigDataStartFrame	OrigNumFrames
250.00	250.00	5	36	mm	250.0	997	1993
                Frame#	Time	LPSIS			LASIS			LTH1			LTH2			LTH3			LTH4			LLFE			LMFE			LSH1			LSH2			LSH3			LSH4			LLMAL			LMMAL			LCAL			LMTP5			LTOE			LMTP1			RPSIS			RASIS			RTH1			RTH2			RTH3			RTH4			RLFE			RMFE			RSH1			RSH2			RSH3			RSH4			RLMAL			RMMAL			RCAL			RMTP1			RTOE			RMTP5		
		X1	Y1	Z1	X2	Y2	Z2	X3	Y3	Z3	X4	Y4	Z4	X5	Y5	Z5	X6	Y6	Z6	X7	Y7	Z7	X8	Y8	Z8	X9	Y9	Z9	X10	Y10	Z10	X11	Y11	Z11	X12	Y12	Z12	X13	Y13	Z13	X14	Y14	Z14	X15	Y15	Z15	X16	Y16	Z16	X17	Y17	Z17	X18	Y18	Z18	X19	Y19	Z19	X20	Y20	Z20	X21	Y21	Z21	X22	Y22	Z22	X23	Y23	Z23	X24	Y24	Z24	X25	Y25	Z25	X26	Y26	Z26	X27	Y27	Z27	X28	Y28	Z28	X29	Y29	Z29	X30	Y30	Z30	X31	Y31	Z31	X32	Y32	Z32	X33	Y33	Z33	X34	Y34	Z34	X35	Y35	Z35	X36	Y36	Z36

997	3.98400	-338.84137	1048.24683	434.97458	-94.85471	992.73157	309.34885	-160.33044	645.18353	239.83339	-149.72896	603.35583	236.28369	-98.38564	650.90808	253.40216	-98.88071	607.17273	249.34065	-151.63762	556.67682	241.66110	-125.57296	530.45776	394.61600	-207.95586	477.42130	237.83376	-212.71729	429.14450	235.14572	-146.83633	463.02118	237.94290	-162.42838	417.82858	239.13864	-261.04166	105.38721	236.63326	-243.69710	104.85538	329.73816	-328.83453	85.92519	294.37109	-116.93401	41.04734	207.68651	-80.17484	68.51300	274.11896	-106.81072	48.20255	321.62946	-339.38770	1056.52393	513.42474	-92.48180	989.31049	615.39752	-195.22516	630.52466	690.41827	-189.78928	586.03375	688.82214	-134.31105	631.73682	695.62140	-135.99602	587.32654	693.43579	-169.09506	546.49921	682.96991	-108.28210	536.86353	571.20251	-228.40303	487.15881	679.44220	-239.50571	449.11108	694.85687	-170.83939	470.90002	696.23346	-191.16328	430.38217	708.83344	-277.05206	131.49480	688.73676	-232.71704	129.46948	612.42401	-333.53638	87.42030	636.99176	-120.43292	47.87424	609.85260	-93.53478	70.36278	660.26166	-129.81856	40.89400	728.71014
998	3.98800	-338.87161	1048.28174	434.96432	-94.81316	992.77069	309.35400	-160.37257	645.18744	239.86745	-149.76573	603.37585	236.28488	-98.42345	650.91125	253.42908	-98.91465	607.17572	249.33846	-151.61435	556.68121	241.64613	-125.57877	530.45374	394.58017	-207.98425	477.41748	237.82123	-212.94409	429.30740	235.28050	-146.89713	463.18106	237.76567	-162.43823	417.81863	239.13626	-261.05045	105.40792	236.67363	-243.69876	104.85934	329.74301	-328.83118	85.94825	294.39020	-116.95612	41.04036	207.67921	-80.16284	68.56902	274.12784	-106.78618	48.20749	321.61676	-339.42996	1056.52637	513.43805	-92.50760	989.31262	615.40039	-195.26521	630.54614	690.39893	-189.81505	586.05219	688.82562	-134.32756	631.78436	695.61078	-136.04459	587.35052	693.42474	-169.13383	546.51685	682.96844	-108.32570	536.87384	571.19696	-228.44440	487.15466	679.42841	-239.54965	449.13461	694.84955	-170.87784	470.93341	696.22455	-190.11063	430.77585	708.97449	-277.05939	131.51918	688.74518	-232.72551	129.48344	612.42810	-333.52744	87.44797	636.98724	-120.51267	47.91573	609.84888	-93.54999	70.37091	660.25250	-129.77219	40.93396	728.70642
999	3.99200	-338.87320	1048.33240	434.94739	-94.84310	992.77887	309.37814	-160.35199	645.19818	239.82718	-149.76762	603.39618	236.26074	-98.43828	650.92303	253.41335	-98.91451	607.18951	249.34477	-151.63460	556.69928	241.65903	-125.57451	530.49548	394.58038	-208.00478	477.43030	237.82379	-212.96516	429.30179	235.27377	-146.89354	463.16086	237.75816	-162.44438	417.84018	239.14087	-261.07202	105.41784	236.67857	-243.66103	104.87609	329.73196	-328.84351	85.94782	294.40567	-116.92462	41.06445	207.67963	-80.16413	68.54404	274.10721	-106.78205	48.20036	321.62601	-339.43381	1056.55042	513.40112	-92.51756	989.33954	615.43280	-195.25354	630.55011	690.40735	-189.80904	586.04205	688.81940	-134.30479	631.80237	695.62207	-135.27832	586.80939	694.27582	-169.07747	546.53925	682.93140	-108.36452	536.90320	571.19910	-228.46019	487.13623	679.42291	-239.56516	449.11368	694.83490	-170.85023	470.94702	696.22461	-190.12991	430.81815	708.95508	-277.01190	131.49939	688.75909	-232.71864	129.50568	612.43640	-333.53751	87.45599	636.99603	-120.41055	47.90796	609.84357	-93.51520	70.37190	660.25598	-129.75668	40.93355	728.70477
1000	3.99600	-338.89523	1048.33435	434.92636	-94.87416	992.75964	309.41330	-160.41692	645.22217	239.85231	-149.77365	603.40668	236.26469	-98.45470	650.93933	253.40268	-98.94513	607.18762	249.32591	-151.66217	556.69568	241.63083	-125.56836	530.49677	394.56409	-208.01848	477.43640	237.82286	-212.97342	429.32321	235.26352	-146.93779	463.17081	237.75493	-162.47321	417.81491	239.11504	-261.05057	105.41659	236.66815	-243.63673	104.85712	329.74207	-328.84503	85.96299	294.39120	-116.92229	41.05051	207.69763	-79.87449	68.77009	274.02209	-106.73898	48.22409	321.62854	-339.46066	1056.58508	513.38977	-92.52676	989.34241	615.44836	-195.25305	630.54279	690.40228	-189.81763	586.05664	688.82410	-134.30562	631.79352	695.60339	-135.30182	586.83630	694.27472	-169.11417	546.53906	682.96466	-108.40167	536.93182	571.18018	-228.45599	487.14877	679.44598	-239.55780	449.10983	694.84705	-170.85814	470.95074	696.22888	-190.68373	430.69543	708.92114	-277.01950	131.50531	688.75751	-232.73474	129.49446	612.44281	-333.49976	87.43423	637.01178	-120.37971	47.88570	609.85699	-93.51160	70.37391	660.27368	-129.74922	40.93444	728.71411
1001	4.00000	-338.92261	1048.36047	434.93292	-94.88639	992.76648	309.41599	-160.41862	645.21503	239.82796	-149.79163	603.41760	236.25023	-98.47453	650.94647	253.40170	-98.94272	607.22247	249.32068	-151.68721	556.70770	241.63000	-125.57750	530.48370	394.55484	-208.02222	477.44931	237.79755	-212.97824	429.31290	235.25603	-146.92854	463.18570	237.74901	-162.47600	417.83429	239.10942	-261.08646	105.42632	236.67516	-243.63684	104.83958	329.73663	-328.84589	85.96106	294.39780	-116.95362	41.05128	207.71597	-80.14014	68.52584	274.17459	-106.77289	48.19051	321.66156	-339.51266	1056.60205	513.39484	-92.60759	989.31891	615.47284	-195.31035	630.52466	690.40448	-189.85730	586.02850	688.85138	-134.40877	631.78052	695.60449	-135.35095	586.80804	694.27838	-169.16959	546.53943	682.96582	-108.39842	536.96948	571.19397	-228.48148	487.12466	679.45349	-239.57829	449.09558	694.85980	-170.90903	470.94519	696.23132	-190.73961	430.69437	708.96094	-277.01740	131.48158	688.80060	-232.72711	129.50365	612.44818	-333.49078	87.43078	637.02936	-120.38571	47.87085	609.87659	-93.51702	70.35226	660.28375	-129.77687	40.89938	728.71741
